<?xml version="1.0" encoding="utf-8"?>
<!-- Generator: Adobe Illustrator 16.0.0, SVG Export Plug-In . SVG Version: 6.00 Build 0)  -->
<!DOCTYPE svg PUBLIC "-//W3C//DTD SVG 1.1//EN" "http://www.w3.org/Graphics/SVG/1.1/DTD/svg11.dtd">
<svg version="1.1" id="Capa_1" xmlns="http://www.w3.org/2000/svg" xmlns:xlink="http://www.w3.org/1999/xlink" x="0px" y="0px"
	 width="64px" height="99px" viewBox="43.5 0.5 64 99" enable-background="new 43.5 0.5 64 99" xml:space="preserve">
<symbol  id="Nouveau_symbole" viewBox="-32 -49.5 64 99">
	<g>
		<path fill="#C42751" d="M31.741,17.759C31.737,35.289,17.532,49.5,0.006,49.5c-17.534,0-31.747-14.211-31.747-31.741
			c0-15.13,23.645-55.555,30.124-66.339c0.341-0.571,0.957-0.92,1.621-0.92c0.664,0,1.282,0.349,1.619,0.918
			C8.098-37.798,31.741,2.629,31.741,17.759z M0.004-6.801c-13.541,0-24.565,11.018-24.565,24.562
			c0,13.542,11.021,24.562,24.565,24.562c13.545,0,24.558-11.02,24.558-24.562S13.547-6.801,0.004-6.801z"/>
	</g>
	<polygon display="none" fill="none" points="-32,49 32,49 32,-49 -32,-49 	"/>
</symbol>
<use xlink:href="#Nouveau_symbole"  width="64" height="99" x="-32" y="-49.5" transform="matrix(1 0 0 -1 75.5 50)" overflow="visible"/>
</svg>
